<svg width="54" height="54" viewBox="0 0 54 54" fill="none" xmlns="http://www.w3.org/2000/svg">
<rect width="54" height="54" rx="27" fill="white"/>
<path d="M39.8799 32.29C40.5508 30.6608 40.9149 28.9167 40.9149 27C40.9149 25.62 40.7041 24.2975 40.3399 23.0708C39.0941 23.3583 37.7908 23.5117 36.4299 23.5117C33.643 23.5147 30.8963 22.8476 28.4212 21.5667C25.9461 20.2858 23.8152 18.4286 22.2083 16.1517C20.4908 20.3123 17.2474 23.6586 13.1424 25.505C13.0658 25.9842 13.0658 26.5017 13.0658 27C13.0658 28.8299 13.4262 30.6418 14.1264 32.3324C14.8267 34.0229 15.8531 35.559 17.147 36.8529C19.7601 39.4661 23.3043 40.9342 26.9999 40.9342C29.0124 40.9342 30.9483 40.4933 32.6924 39.7075C33.7849 41.7967 34.2833 42.8317 34.2449 42.8317C31.1016 43.8858 28.6674 44.4033 26.9999 44.4033C22.3616 44.4033 17.9341 42.5825 14.6758 39.305C12.6921 37.3307 11.2186 34.9034 10.3824 32.2325H7.83325V23.5117H9.92242C10.5554 20.4306 12.0106 17.5785 14.1337 15.2577C16.2568 12.937 18.9685 11.2343 21.9812 10.3303C24.9938 9.42629 28.195 9.35473 31.2451 10.1232C34.2951 10.8916 37.0802 12.4715 39.3049 14.695C41.7195 17.1015 43.3669 20.1695 44.0391 23.5117H46.1666V32.2325H46.0516L39.2283 38.5L29.0699 37.35V34.1492H38.3274L39.8799 32.29ZM21.7674 26.5592C22.3424 26.5592 22.8983 26.7892 23.3008 27.2108C23.7053 27.6186 23.9322 28.1698 23.9322 28.7442C23.9322 29.3186 23.7053 29.8697 23.3008 30.2775C22.8983 30.68 22.3424 30.91 21.7674 30.91C20.5599 30.91 19.5824 29.9517 19.5824 28.7442C19.5824 27.5367 20.5599 26.5592 21.7674 26.5592ZM32.2133 26.5592C33.4208 26.5592 34.3791 27.5367 34.3791 28.7442C34.3791 29.9517 33.4208 30.91 32.2133 30.91C31.0058 30.91 30.0283 29.9517 30.0283 28.7442C30.0283 28.1647 30.2585 27.6089 30.6682 27.1991C31.078 26.7894 31.6338 26.5592 32.2133 26.5592Z" fill="#F46286"/>
</svg>
